<?xml version="1.0" ?><svg viewBox="0 0 32 32" xmlns="http://www.w3.org/2000/svg"><title/><g data-name="Layer 2" id="Layer_2"><path d="M24.85,11.66l-.79-.79A3.52,3.52,0,0,0,24.57,7c-.66-1.2-2.07-1.21-3.31-1.22-1.84,0-3-.13-3.34-1.91a.49.49,0,0,0-.59-.39.5.5,0,0,0-.39.59c.54,2.66,2.72,2.69,4.31,2.71,1.28,0,2.09.06,2.44.7a2.42,2.42,0,0,1-.35,2.64L23,9.78a.47.47,0,0,0-.35-.15H17.89a.52.52,0,0,0-.37.16L7.13,21.08a.5.5,0,0,0,0,.69l6.61,6.58a.47.47,0,0,0,.35.15h0a.48.48,0,0,0,.36-.16L24.87,17.05a.51.51,0,0,0,.13-.34V12A.47.47,0,0,0,24.85,11.66ZM24,16.52,14.1,27.28,8.19,21.4l9.92-10.77h4.3L24,12.22Z"/><path d="M19.93,13.31a1.34,1.34,0,0,0-.39.95,1.32,1.32,0,0,0,.39.94,1.35,1.35,0,0,0,.95.39,1.33,1.33,0,0,0,.94-.39h0a1.29,1.29,0,0,0,.4-.94,1.32,1.32,0,0,0-.4-.95A1.34,1.34,0,0,0,19.93,13.31Zm1.19,1.18a.33.33,0,0,1-.48,0,.29.29,0,0,1-.1-.23.33.33,0,0,1,.1-.24.35.35,0,0,1,.24-.1.39.39,0,0,1,.24.1.35.35,0,0,1,.1.24A.33.33,0,0,1,21.12,14.49Z"/><path d="M17.79,14.74a.5.5,0,0,0-.71,0l-6,6a.51.51,0,0,0,0,.71.5.5,0,0,0,.35.15.51.51,0,0,0,.36-.15l6-6A.51.51,0,0,0,17.79,14.74Z"/><path d="M19.65,17.3l-4.27,4.27a.5.5,0,0,0,.35.85.51.51,0,0,0,.36-.15L20.36,18a.51.51,0,0,0,0-.71A.5.5,0,0,0,19.65,17.3Z"/></g></svg>